:FULLY-SPECIFIED
:FORCE-ALL-JOINTS-BE-3DOF
:DEGREES
437
root 10.6309 17.2878 27.0579 6.16655 -0.744701 -1.66919
lfemur -30.1863 2.4194 -22.8576
ltibia 26.331 -0 0
lfoot -10.4459 6.58772 0.0594656
ltoes -5.37696 0 0
rfemur -3.00802 0.112113 22.2373
rtibia 44.7858 -0 0
rfoot -5.27875 -2.75661 0.0671198
rtoes -19.5602 0 0
lowerback -6.79168 0.852944 -0.180446
upperback -1.36084 1.07049 2.16353
thorax 2.41282 0.538645 2.53521
lowerneck -20.288 -4.92391 -12.5056
upperneck 23.3062 -6.02494 11.4682
head 11.7521 -2.43024 5.43908
lclavicle -3.41528e-14 -8.15665e-15 3.65092e-30
lhumerus -36.783 -9.84136 92.0748
lradius 21.454 -0 0
lwrist -2.08791 0 0
lhand -8.9469 -22.2967 0.0124391
lfingers 7.12502 -0 0
lthumb 16.9971 6.97288 0.00991126
rclavicle -3.41528e-14 -8.15665e-15 3.65092e-30
rhumerus -39.7585 11.8309 -88.1614
rradius 35.1456 -0 0
rwrist -13.1883 0 0
rhand -30.0696 -29.799 0.0160933
rfingers 7.12502 -0 0
rthumb -3.38469 -59.7515 0.0155182
438
root 10.6572 17.3106 27.2139 6.09395 -0.653635 -1.35943
lfemur -29.4754 2.52722 -23.3389
ltibia 26.5315 -0 0
lfoot -10.6222 6.44034 0.0565194
ltoes -4.92823 0 0
rfemur -4.27447 -0.182488 21.8164
rtibia 46.8077 -0 0
rfoot -5.43925 -3.21196 0.0669053
rtoes -19.6877 0 0
lowerback -6.67771 0.710451 -0.385145
upperback -1.3859 0.899224 2.09509
thorax 2.32607 0.452478 2.55854
lowerneck -20.3414 -4.86195 -12.4623
upperneck 23.3833 -5.92952 11.3939
head 11.7732 -2.39136 5.42141
lclavicle -3.54618e-14 -7.35018e-15 3.52211e-30
lhumerus -35.9347 -9.94696 91.912
lradius 21.2872 -0 0
lwrist -2.37623 0 0
lhand -9.11365 -22.3698 0.0117887
lfingers 7.12502 -0 0
lthumb 16.8366 6.91356 0.00930889
rclavicle -3.54618e-14 -7.35018e-15 3.52211e-30
rhumerus -40.1974 11.755 -88.1929
rradius 35.0655 -0 0
rwrist -13.1029 0 0
rhand -30.1093 -30.0259 0.0147035
rfingers 7.12502 -0 0
rthumb -3.42297 -59.9778 0.0141778
439
root 10.6818 17.3323 27.3564 6.02265 -0.560937 -1.0535
lfemur -28.7583 2.63696 -23.8103
ltibia 26.7162 -0 0
lfoot -10.7975 6.29581 0.0531961
ltoes -4.48548 0 0
rfemur -5.52986 -0.469023 21.407
rtibia 48.7713 -0 0
rfoot -5.60988 -3.65913 0.0658936
rtoes -19.8012 0 0
lowerback -6.5655 0.568444 -0.588146
upperback -1.40945 0.727849 2.02786
thorax 2.24221 0.366271 2.58208
lowerneck -20.3948 -4.80023 -12.4187
upperneck 23.4595 -5.83493 11.3214
head 11.794 -2.35265 5.40417
lclavicle -3.67058e-14 -6.5497e-15 3.3688e-30
lhumerus -35.095 -10.0566 91.7501
lradius 21.1321 -0 0
lwrist -2.65202 0 0
lhand -9.27987 -22.4433 0.0110327
lfingers 7.12502 -0 0
lthumb 16.6766 6.85381 0.00863312
rclavicle -3.67058e-14 -6.5497e-15 3.3688e-30
rhumerus -40.631 11.6788 -88.2216
rradius 34.9886 -0 0
rwrist -13.0233 0 0
rhand -30.1474 -30.2435 0.0132197
rfingers 7.12502 -0 0
rthumb -3.45985 -60.1948 0.0127469
440
root 10.7046 17.3529 27.4847 5.9529 -0.466926 -0.75235
lfemur -28.0359 2.74782 -24.2701
ltibia 26.8823 -0 0
lfoot -10.9713 6.15449 0.0495357
ltoes -4.05036 0 0
rfemur -6.77044 -0.745214 21.0095
rtibia 50.6679 -0 0
rfoot -5.79054 -4.09664 0.0640743
rtoes -19.8995 0 0
lowerback -6.45554 0.427268 -0.788825
upperback -1.43135 0.55679 1.96205
thorax 2.16166 0.280234 2.60574
lowerneck -20.4479 -4.73885 -12.3749
upperneck 23.5344 -5.7414 11.251
head 11.8147 -2.31419 5.38745
lclavicle -3.78777e-14 -5.75638e-15 3.1923e-30
lhumerus -34.2662 -10.1704 91.5894
lradius 20.9899 -0 0
lwrist -2.91416 0 0
lhand -9.44496 -22.5169 0.0101828
lfingers 7.12502 -0 0
lthumb 16.5177 6.79373 0.00789398
rclavicle -3.78777e-14 -5.75638e-15 3.1923e-30
rhumerus -41.058 11.6023 -88.2474
rradius 34.9148 -0 0
rwrist -12.9497 0 0
rhand -30.184 -30.4507 0.0116704
rfingers 7.12502 -0 0
rthumb -3.49511 -60.4015 0.0112529
441
root 10.7255 17.3722 27.5975 5.8849 -0.371922 -0.456926
lfemur -27.309 2.85895 -24.7168
ltibia 27.0271 -0 0
lfoot -11.1431 6.0168 0.0455835
ltoes -3.62451 0 0
rfemur -7.99248 -1.0087 20.6244
rtibia 52.4888 -0 0
rfoot -5.98119 -4.52299 0.0614524
rtoes -19.9811 0 0
lowerback -6.34832 0.287263 -0.986557
upperback -1.45148 0.386479 1.89788
thorax 2.08484 0.194578 2.62949
lowerneck -20.5007 -4.67794 -12.3308
upperneck 23.608 -5.64914 11.1829
head 11.8352 -2.27605 5.3713
lclavicle -3.89705e-14 -4.97139e-15 2.99416e-30
lhumerus -33.4508 -10.2883 91.4304
lradius 20.8616 -0 0
lwrist -3.16149 0 0
lhand -9.60832 -22.5906 0.00925321
lfingers 7.12502 -0 0
lthumb 16.3604 6.73339 0.00710321
rclavicle -3.89705e-14 -4.97139e-15 2.99416e-30
rhumerus -41.4773 11.5256 -88.2703
rradius 34.8444 -0 0
rwrist -12.8824 0 0
rhand -30.2186 -30.6465 0.0100865
rfingers 7.12502 -0 0
rthumb -3.52854 -60.5968 0.00972573
442
root 10.7443 17.39 27.6939 5.81886 -0.276254 -0.16818
lfemur -26.5787 2.96944 -25.1488
ltibia 27.1477 -0 0
lfoot -11.312 5.8831 0.0413894
ltoes -3.20957 0 0
rfemur -9.19226 -1.25707 20.252
rtibia 54.2256 -0 0
rfoot -6.18173 -4.93667 0.0580494
rtoes -20.0448 0 0
lowerback -6.24434 0.148763 -1.18071
upperback -1.46971 0.217347 1.83556
thorax 2.0122 0.109514 2.65324
lowerneck -20.553 -4.6176 -12.2867
upperneck 23.6801 -5.55839 11.1173
head 11.8554 -2.23831 5.3558
lclavicle -3.9977e-14 -4.19586e-15 2.77611e-30
lhumerus -32.6509 -10.4104 91.2734
lradius 20.7482 -0 0
lwrist -3.3929 0 0
lhand -9.76934 -22.6642 0.00826018
lfingers 7.12502 -0 0
lthumb 16.2054 6.67288 0.00627419
rclavicle -3.9977e-14 -4.19586e-15 2.77611e-30
rhumerus -41.8876 11.4486 -88.2902
rradius 34.7775 -0 0
rwrist -12.8217 0 0
rhand -30.251 -30.8298 0.0085006
rfingers 7.12502 -0 0
rthumb -3.55991 -60.7797 0.00819665
443
root 10.7609 17.4063 27.773 5.75499 -0.180251 0.112941
lfemur -25.8457 3.07832 -25.5646
ltibia 27.2413 -0 0
lfoot -11.4777 5.7538 0.0370083
ltoes -2.80717 0 0
rfemur -10.3661 -1.48784 19.8925
rtibia 55.8695 -0 0
rfoot -6.39212 -5.33619 0.0539044
rtoes -20.0893 0 0
lowerback -6.14411 0.0120966 -1.37065
upperback -1.4859 0.0498257 1.77532
thorax 1.94415 0.0252495 2.67693
lowerneck -20.6047 -4.55797 -12.2425
upperneck 23.7504 -5.46936 11.0546
head 11.8752 -2.20104 5.34103
lclavicle -4.08902e-14 -3.43098e-15 2.5401e-30
lhumerus -31.869 -10.5368 91.1187
lradius 20.6508 -0 0
lwrist -3.60725 0 0
lhand -9.92742 -22.7376 0.00722237
lfingers 7.12502 -0 0
lthumb 16.0532 6.61226 0.005422
rclavicle -4.08902e-14 -3.43098e-15 2.5401e-30
rhumerus -42.2877 11.3714 -88.3069
rradius 34.7141 -0 0
rwrist -12.7681 0 0
rhand -30.2812 -30.9996 0.00694667
rfingers 7.12502 -0 0
rthumb -3.589 -60.949 0.00669844
444
root 10.7752 17.4209 27.8336 5.69348 -0.0842461 0.385491
lfemur -25.1109 3.18458 -25.9628
ltibia 27.3052 -0 0
lfoot -11.6393 5.62928 0.0324992
ltoes -2.41895 0 0
rfemur -11.5103 -1.69847 19.5461
rtibia 57.4119 -0 0
rfoot -6.61227 -5.72006 0.0490757
rtoes -20.1133 0 0
lowerback -6.04812 -0.122411 -1.55574
upperback -1.49993 -0.115654 1.71736
thorax 1.88113 -0.0580058 2.70048
lowerneck -20.6557 -4.49915 -12.1983
upperneck 23.8188 -5.38228 10.9949
head 11.8947 -2.16432 5.32704
lclavicle -4.17029e-14 -2.67789e-15 2.28823e-30
lhumerus -31.1074 -10.6676 90.9667
lradius 20.5704 -0 0
lwrist -3.80339 0 0
lhand -10.082 -22.8108 0.00616066
lfingers 7.12502 -0 0
lthumb 15.9044 6.55163 0.00456338
rclavicle -4.17029e-14 -2.67789e-15 2.28823e-30
rhumerus -42.6764 11.2939 -88.3204
rradius 34.6545 -0 0
rwrist -12.7217 0 0
rhand -30.3087 -31.1549 0.00545955
rfingers 7.12502 -0 0
rthumb -3.61559 -61.1039 0.00526466
445
root 10.787 17.4337 27.8749 5.63452 0.0114233 0.648525
lfemur -24.3751 3.28714 -26.3417
ltibia 27.3366 -0 0
lfoot -11.7964 5.50992 0.0279252
ltoes -2.04655 0 0
rfemur -12.6212 -1.88638 19.2128
rtibia 58.8441 -0 0
rfoot -6.84213 -6.08677 0.0436418
rtoes -20.1154 0 0
lowerback -5.9569 -0.25444 -1.73533
upperback -1.51168 -0.278659 1.6619
thorax 1.82357 -0.140044 2.72384
lowerneck -20.7058 -4.44126 -12.1543
upperneck 23.8852 -5.29739 10.9385
head 11.9138 -2.12822 5.31392
lclavicle -4.24081e-14 -1.93776e-15 2.02279e-30
lhumerus -30.3684 -10.8028 90.8178
lradius 20.508 -0 0
lwrist -3.98021 0 0
lhand -10.2324 -22.8834 0.00509814
lfingers 7.12502 -0 0
lthumb 15.7597 6.49106 0.00371674
rclavicle -4.24081e-14 -1.93776e-15 2.02279e-30
rhumerus -43.0525 11.2162 -88.3305
rradius 34.5988 -0 0
rwrist -12.683 0 0
rhand -30.3334 -31.2945 0.00407444
rfingers 7.12502 -0 0
rthumb -3.63947 -61.2432 0.00392925
